<?xml version="1.0" standalone="no"?>
<!DOCTYPE svg PUBLIC "-//W3C//DTD SVG 20010904//EN"
 "http://www.w3.org/TR/2001/REC-SVG-20010904/DTD/svg10.dtd">
<svg version="1.0" xmlns="http://www.w3.org/2000/svg"
 width="328.000000pt" height="328.000000pt" viewBox="0 0 328.000000 328.000000"
 preserveAspectRatio="xMidYMid meet">
<metadata>
Created by potrace 1.14, written by Peter Selinger 2001-2017
</metadata>
<g transform="translate(0.000000,328.000000) scale(0.100000,-0.100000)"
fill="#000000" stroke="none">
<path d="M1216 2585 c-23 -21 -26 -32 -26 -90 l0 -65 -78 0 c-68 0 -87 -4
-139 -30 -34 -17 -73 -46 -88 -65 -59 -79 -58 -58 -59 -690 -2 -456 1 -590 11
-627 20 -69 69 -128 136 -162 l58 -30 608 0 608 0 56 28 c63 30 101 70 130
136 20 44 21 64 20 640 0 576 0 596 -20 641 -24 53 -79 110 -131 135 -22 11
-71 20 -122 24 l-85 5 -5 68 c-4 57 -9 72 -29 88 -36 29 -87 25 -122 -10 -26
-26 -29 -36 -29 -90 l0 -61 -270 0 -270 0 0 61 c0 54 -3 64 -29 90 -38 38 -87
39 -125 4z m1029 -360 c22 -21 25 -33 25 -90 l0 -65 -630 0 -630 0 0 65 c0 57
3 69 25 90 l24 25 581 0 581 0 24 -25z m25 -748 l0 -424 -26 -24 -26 -24 -578
0 -578 0 -26 24 -26 24 0 424 0 423 630 0 630 0 0 -423z"/>
<path d="M1883 1400 c-35 -14 -43 -42 -43 -145 0 -91 9 -131 34 -147 6 -4 64
-8 128 -8 149 0 148 -1 148 156 0 110 -1 113 -26 133 -23 18 -40 21 -123 20
-53 0 -106 -4 -118 -9z"/>
</g>
</svg>
